<?xml version="1.0" encoding="UTF-8" standalone="no"?>
<svg width="404px" height="405px" viewBox="0 0 404 405" version="1.1" xmlns="http://www.w3.org/2000/svg" xmlns:xlink="http://www.w3.org/1999/xlink" xmlns:sketch="http://www.bohemiancoding.com/sketch/ns">
    <!-- Generator: Sketch 3.0.4 (8053) - http://www.bohemiancoding.com/sketch -->
    <title>Eb</title>
    <desc>Created with Sketch.</desc>
    <defs></defs>
    <g id="Page-1" stroke="none" stroke-width="1" fill="none" fill-rule="evenodd" sketch:type="MSPage">
        <g id="Eb" sketch:type="MSArtboardGroup" fill="#FFFFFF">
            <g id="Group" sketch:type="MSLayerGroup">
                <rect id="Rectangle-17" sketch:type="MSShapeGroup" x="32" y="0" width="340" height="5"></rect>
                <rect id="Rectangle-18" sketch:type="MSShapeGroup" x="32" y="5" width="2" height="400"></rect>
                <rect id="Rectangle-18" sketch:type="MSShapeGroup" x="370" y="5" width="2" height="400"></rect>
                <rect id="Rectangle-20" sketch:type="MSShapeGroup" x="32" y="403" width="340" height="2"></rect>
                <rect id="Rectangle-20" sketch:type="MSShapeGroup" x="32" y="83" width="340" height="2"></rect>
                <rect id="Rectangle-20" sketch:type="MSShapeGroup" x="32" y="163" width="340" height="2"></rect>
                <rect id="Rectangle-20" sketch:type="MSShapeGroup" x="32" y="243" width="340" height="2"></rect>
                <rect id="Rectangle-20" sketch:type="MSShapeGroup" x="32" y="323" width="340" height="2"></rect>
                <rect id="Rectangle-21" sketch:type="MSShapeGroup" x="101" y="5" width="1" height="400"></rect>
                <rect id="Rectangle-21" sketch:type="MSShapeGroup" x="169" y="5" width="1" height="400"></rect>
                <rect id="Rectangle-21" sketch:type="MSShapeGroup" x="236" y="5" width="1" height="400"></rect>
                <rect id="Rectangle-21" sketch:type="MSShapeGroup" x="304" y="5" width="1" height="400"></rect>
                <circle id="Oval-1" sketch:type="MSShapeGroup" cx="170" cy="204" r="21"></circle>
                <circle id="Oval-1" sketch:type="MSShapeGroup" cx="237" cy="43" r="21"></circle>
                <circle id="Oval-1" sketch:type="MSShapeGroup" cx="306" cy="123" r="21"></circle>
                <circle id="Oval-1" sketch:type="MSShapeGroup" cx="370" cy="43" r="21"></circle>
                <path d="M5.96,42.54 C6.5200028,42.7933346 6.9866648,43.119998 7.36,43.52 C8.3333382,44.4800048 8.82,45.6466598 8.82,47.02 C8.82,48.3933402 8.3333382,49.5666618 7.36,50.54 C6.3866618,51.5133382 5.2166735,52 3.85,52 C2.4833265,52 1.3133382,51.5133382 0.34,50.54 C0.1133322,50.3266656 0,50.0600016 0,49.74 C0,49.4199984 0.1133322,49.1533344 0.34,48.94 C0.5666678,48.7266656 0.8333318,48.62 1.14,48.62 C1.4466682,48.62 1.7133322,48.7266656 1.94,48.94 C2.4600026,49.4600026 3.0933296,49.72 3.84,49.72 C4.5866704,49.72 5.226664,49.4566693 5.76,48.93 C6.293336,48.4033307 6.56,47.7666704 6.56,47.02 C6.56,46.2733296 6.3033359,45.6433359 5.79,45.13 C5.2766641,44.6166641 4.6333372,44.3466668 3.86,44.32 C3.526665,44.3466668 3.2533344,44.226668 3.04,43.96 C3.0266666,43.96 3.02,43.9533334 3.02,43.94 C2.7933322,43.7266656 2.6766667,43.4633349 2.67,43.15 C2.6633333,42.8366651 2.7666656,42.5666678 2.98,42.34 L5.02,40.26 L1.78,40.26 C1.4733318,40.26 1.2100011,40.1500011 0.99,39.93 C0.7699989,39.7099989 0.66,39.4433349 0.66,39.13 C0.66,38.8166651 0.7699989,38.5500011 0.99,38.33 C1.2100011,38.1099989 1.4733318,38 1.78,38 L7.68,38 C8.0000016,38 8.2699989,38.1099989 8.49,38.33 C8.7100011,38.5500011 8.82,38.8166651 8.82,39.13 C8.82,39.4433349 8.7066678,39.7133322 8.48,39.94 L5.96,42.54 Z" id="3" sketch:type="MSShapeGroup"></path>
            </g>
        </g>
    </g>
</svg>