<?xml version="1.0" encoding="UTF-8" standalone="no"?>
<svg width="404px" height="405px" viewBox="0 0 404 405" version="1.1" xmlns="http://www.w3.org/2000/svg" xmlns:xlink="http://www.w3.org/1999/xlink" xmlns:sketch="http://www.bohemiancoding.com/sketch/ns">
    <!-- Generator: Sketch 3.0.4 (8053) - http://www.bohemiancoding.com/sketch -->
    <title>Gm</title>
    <desc>Created with Sketch.</desc>
    <defs></defs>
    <g id="Page-1" stroke="none" stroke-width="1" fill="none" fill-rule="evenodd" sketch:type="MSPage">
        <g id="Gm" sketch:type="MSArtboardGroup" fill="#FFFFFF">
            <g id="Group" sketch:type="MSLayerGroup" transform="translate(12.000000, 0.000000)">
                <rect id="Rectangle-17" sketch:type="MSShapeGroup" x="20" y="0" width="340" height="5"></rect>
                <path d="M20,24.0233902 L20,5 L22,5 L22,24.0233902 C21.6686172,24.0078547 21.3352259,24 21,24 C20.6647741,24 20.3313828,24.0078547 20,24.0233902 Z M20,65.9766098 L20,405 L22,405 L22,65.9766098 C21.6686172,65.9921453 21.3352259,66 21,66 C20.6647741,66 20.3313828,65.9921453 20,65.9766098 Z" id="Rectangle-18" sketch:type="MSShapeGroup"></path>
                <rect id="Rectangle-18" sketch:type="MSShapeGroup" x="358" y="5" width="2" height="400"></rect>
                <rect id="Rectangle-20" sketch:type="MSShapeGroup" x="20" y="403" width="340" height="2"></rect>
                <rect id="Rectangle-20" sketch:type="MSShapeGroup" x="20" y="83" width="340" height="2"></rect>
                <rect id="Rectangle-20" sketch:type="MSShapeGroup" x="20" y="163" width="340" height="2"></rect>
                <rect id="Rectangle-20" sketch:type="MSShapeGroup" x="20" y="243" width="340" height="2"></rect>
                <rect id="Rectangle-20" sketch:type="MSShapeGroup" x="20" y="323" width="340" height="2"></rect>
                <rect id="Rectangle-21" sketch:type="MSShapeGroup" x="89" y="5" width="1" height="400"></rect>
                <rect id="Rectangle-21" sketch:type="MSShapeGroup" x="157" y="5" width="1" height="400"></rect>
                <rect id="Rectangle-21" sketch:type="MSShapeGroup" x="224" y="5" width="1" height="400"></rect>
                <rect id="Rectangle-21" sketch:type="MSShapeGroup" x="292" y="5" width="1" height="400"></rect>
                <path d="M21,66 C32.5979797,66 42,56.5979797 42,45 C42,33.4020203 32.5979797,24 21,24 C9.40202025,24 0,33.4020203 0,45 C0,56.5979797 9.40202025,66 21,66 Z M22.48,42.52 C23.0400028,42.7733346 23.5066648,43.099998 23.88,43.5 C24.8533382,44.4600048 25.34,45.6266598 25.34,47 C25.34,48.3733402 24.8533382,49.5466618 23.88,50.52 C22.9066618,51.4933382 21.7366735,51.98 20.37,51.98 C19.0033265,51.98 17.8333382,51.4933382 16.86,50.52 C16.6333322,50.3066656 16.52,50.0400016 16.52,49.72 C16.52,49.3999984 16.6333322,49.1333344 16.86,48.92 C17.0866678,48.7066656 17.3533318,48.6 17.66,48.6 C17.9666682,48.6 18.2333322,48.7066656 18.46,48.92 C18.9800026,49.4400026 19.6133296,49.7 20.36,49.7 C21.1066704,49.7 21.746664,49.4366693 22.28,48.91 C22.813336,48.3833307 23.08,47.7466704 23.08,47 C23.08,46.2533296 22.8233359,45.6233359 22.31,45.11 C21.7966641,44.5966641 21.1533372,44.3266668 20.38,44.3 C20.046665,44.3266668 19.7733344,44.206668 19.56,43.94 C19.5466666,43.94 19.54,43.9333334 19.54,43.92 C19.3133322,43.7066656 19.1966667,43.4433349 19.19,43.13 C19.1833333,42.8166651 19.2866656,42.5466678 19.5,42.32 L21.54,40.24 L18.3,40.24 C17.9933318,40.24 17.7300011,40.1300011 17.51,39.91 C17.2899989,39.6899989 17.18,39.4233349 17.18,39.11 C17.18,38.7966651 17.2899989,38.5300011 17.51,38.31 C17.7300011,38.0899989 17.9933318,37.98 18.3,37.98 L24.2,37.98 C24.5200016,37.98 24.7899989,38.0899989 25.01,38.31 C25.2300011,38.5300011 25.34,38.7966651 25.34,39.11 C25.34,39.4233349 25.2266678,39.6933322 25,39.92 L22.48,42.52 Z" id="Oval-1" sketch:type="MSShapeGroup"></path>
                <circle id="Oval-1" sketch:type="MSShapeGroup" cx="90" cy="204" r="21"></circle>
                <circle id="Oval-1" sketch:type="MSShapeGroup" cx="158" cy="204" r="21"></circle>
                <circle id="Oval-1" sketch:type="MSShapeGroup" cx="225" cy="43" r="21"></circle>
                <circle id="Oval-1" sketch:type="MSShapeGroup" cx="294" cy="43" r="21"></circle>
                <circle id="Oval-1" sketch:type="MSShapeGroup" cx="358" cy="43" r="21"></circle>
            </g>
        </g>
    </g>
</svg>